HIERARCHY
ROOT Hips
{
	OFFSET 0.000000 0.000000 0.000000
	CHANNELS 6 Xposition Yposition Zposition Xrotation Yrotation Zrotation
	JOINT LeftUpLeg_virtual
	{
		OFFSET 0.000000 0.000000 0.000000
		CHANNELS 3 Xrotation Yrotation Zrotation
		JOINT LeftUpLeg
		{
			OFFSET 10.205400 -3.823500 0.155100
			CHANNELS 3 Xrotation Yrotation Zrotation
			JOINT LeftLeg
			{
				OFFSET 0.708757 -12.982077 0.567790
				CHANNELS 3 Xrotation Yrotation Zrotation
				JOINT LeftFoot
				{
					OFFSET -0.708756 -10.717838 -2.184338
					CHANNELS 3 Xrotation Yrotation Zrotation
					JOINT LeftToeBase
					{
						OFFSET 0.108149 -7.191104 7.560241
						CHANNELS 3 Xrotation Yrotation Zrotation
						JOINT LeftToe_End
						{
							OFFSET 0.070230 0.081724 4.490308
							CHANNELS 3 Xrotation Yrotation Zrotation
							End Site
							{
								OFFSET 0 0 0
							}
						}
					}
				}
			}
		}
	}
	JOINT RightUpLeg_virtual
	{
		OFFSET 0.000000 0.000000 0.000000
		CHANNELS 3 Xrotation Yrotation Zrotation
		JOINT RightUpLeg
		{
			OFFSET -10.205400 -3.823500 0.005500
			CHANNELS 3 Xrotation Yrotation Zrotation
			JOINT RightLeg
			{
				OFFSET -0.708756 -12.982134 0.610632
				CHANNELS 3 Xrotation Yrotation Zrotation
				JOINT RightFoot
				{
					OFFSET 0.708754 -10.717769 -1.945823
					CHANNELS 3 Xrotation Yrotation Zrotation
					JOINT RightToeBase
					{
						OFFSET -0.108140 -7.191069 7.372968
						CHANNELS 3 Xrotation Yrotation Zrotation
						JOINT RightToe_End
						{
							OFFSET -0.070227 0.081735 4.479403
							CHANNELS 3 Xrotation Yrotation Zrotation
							End Site
							{
								OFFSET 0 0 0
							}
						}
					}
				}
			}
		}
	}
	JOINT Spine_virtual
	{
		OFFSET 0.000000 0.000000 0.000000
		CHANNELS 3 Xrotation Yrotation Zrotation
		JOINT Spine
		{
			OFFSET 0.000000 6.876099 0.125700
			CHANNELS 3 Xrotation Yrotation Zrotation
			JOINT Spine1
			{
				OFFSET 0.000000 5.730043 0.104720
				CHANNELS 3 Xrotation Yrotation Zrotation
				JOINT Spine1_split
				{
					OFFSET 0.000000 5.730043 0.104720
					CHANNELS 3 Xrotation Yrotation Zrotation
					JOINT Spine2
					{
						OFFSET 0.000000 5.730043 0.104720
						CHANNELS 3 Xrotation Yrotation Zrotation
						JOINT Neck_virtual
						{
							OFFSET 0.000000 0.000000 0.000000
							CHANNELS 3 Xrotation Yrotation Zrotation
							JOINT Neck
							{
								OFFSET 0.000000 10.314075 0.188496
								CHANNELS 3 Xrotation Yrotation Zrotation
								JOINT Head
								{
									OFFSET 0.000000 7.643700 -2.377400
									CHANNELS 3 Xrotation Yrotation Zrotation
									JOINT HeadTop_End
									{
										OFFSET 0.000000 43.788605 -13.619600
										CHANNELS 3 Xrotation Yrotation Zrotation
										End Site
										{
											OFFSET 0 0 0
										}
									}
								}
							}
						}
						JOINT LeftShoulder_virtual
						{
							OFFSET 0.000000 0.000000 0.000000
							CHANNELS 3 Xrotation Yrotation Zrotation
							JOINT LeftShoulder
							{
								OFFSET 2.196100 4.412489 0.087492
								CHANNELS 3 Xrotation Yrotation Zrotation
								JOINT LeftShoulder_split
								{
									OFFSET 2.196100 4.412489 0.087492
									CHANNELS 3 Xrotation Yrotation Zrotation
									JOINT LeftArm
									{
										OFFSET 8.771219 -2.981674 -0.026999
										CHANNELS 3 Xrotation Yrotation Zrotation
										JOINT LeftForeArm
										{
											OFFSET 8.512804 0.000000 -0.000000
											CHANNELS 3 Xrotation Yrotation Zrotation
											JOINT LeftHand
											{
												OFFSET 18.484802 0.000000 -0.000000
												CHANNELS 3 Xrotation Yrotation Zrotation
												End Site
												{
													OFFSET 0 0 0
												}
											}
										}
									}
								}
							}
						}
						JOINT RightShoulder_virtual
						{
							OFFSET 0.000000 0.000000 0.000000
							CHANNELS 3 Xrotation Yrotation Zrotation
							JOINT RightShoulder
							{
								OFFSET -2.196100 4.412496 0.070690
								CHANNELS 3 Xrotation Yrotation Zrotation
								JOINT RightShoulder_split
								{
									OFFSET -2.196100 4.412496 0.070690
									CHANNELS 3 Xrotation Yrotation Zrotation
									JOINT RightArm
									{
										OFFSET -8.771282 -2.981682 -0.094208
										CHANNELS 3 Xrotation Yrotation Zrotation
										JOINT RightForeArm
										{
											OFFSET -8.494598 0.000000 0.000000
											CHANNELS 3 Xrotation Yrotation Zrotation
											JOINT RightHand
											{
												OFFSET -18.483803 0.000000 0.000001
												CHANNELS 3 Xrotation Yrotation Zrotation
												End Site
												{
													OFFSET 0 0 0
												}
											}
										}
									}
								}
							}
						}
					}
				}
			}
		}
	}
}
MOTION
Frames: 11
Frame Time: 0.03333333
-0.706161 25.708542 3.203976 0.000000 0.000000 0.000000 26.091227 -22.907765 8.739938 -77.158980 -10.157651 32.046025 70.449945 -8.125456 4.175603 -11.135416 5.373266 -26.946099 -0.000033 -0.000004 0.000024 0.000000 0.000000 0.000000 26.091227 -22.907765 8.739938 -65.233668 0.076957 -33.036792 73.547040 8.396381 -6.379109 -25.945155 -9.849823 24.791353 -7.598376 0.000051 0.000003 0.000000 0.000000 0.000000 26.091227 -22.907765 8.739938 14.947162 2.608311 -0.718975 9.003391 1.560769 -0.642826 0.000000 0.000000 0.000000 0.000000 0.000000 0.000000 8.977750 1.670481 -0.748274 -7.842654 3.349095 -7.790141 -42.916975 9.463874 7.869841 0.000000 0.000000 0.000000 8.977750 1.670481 -0.748274 3.941267 -6.602834 9.980159 0.000000 0.000000 0.000000 -51.728906 5.083703 -64.509566 0.000083 -86.914403 0.000071 0.000000 0.000000 0.000000 8.977750 1.670481 -0.748274 3.972229 12.305919 4.222363 0.000000 0.000000 0.000000 -39.870604 11.659999 46.257118 179.999021 88.978746 -179.999117 0.000000 0.000000 0.000000 
-0.706938 25.804718 3.268085 0.000000 0.000000 0.000000 26.306620 -22.946712 8.821010 -76.996982 -9.850101 32.014910 70.134192 -8.196785 4.231762 -11.323386 5.388180 -26.865219 -0.000055 -0.000006 0.000055 0.000000 0.000000 0.000000 26.306620 -22.946712 8.821010 -65.086129 -0.268133 -32.882122 72.908035 8.014232 -6.703838 -25.823171 -9.494240 24.873420 -7.629913 0.000042 0.000007 0.000000 0.000000 0.000000 26.306620 -22.946712 8.821010 14.946803 2.403361 -0.827515 8.954933 1.454248 -0.667644 0.000000 0.000000 0.000000 0.000000 0.000000 0.000000 8.929232 1.567216 -0.769623 -7.642836 3.429839 -7.508570 -43.074776 9.987863 7.921031 0.000000 0.000000 0.000000 8.929232 1.567216 -0.769623 3.858291 -6.469478 9.422135 0.000000 0.000000 0.000000 -49.881066 5.784871 -65.370962 -0.000275 -89.198377 -0.000565 0.000000 0.000000 0.000000 8.929232 1.567216 -0.769623 3.960235 12.222869 4.273389 0.000000 0.000000 0.000000 -38.946917 11.840059 48.020827 179.999773 86.265194 -179.999868 0.000000 0.000000 0.000000 
-0.719352 25.851744 3.309092 0.000000 0.000000 0.000000 26.578317 -23.089489 8.947977 -76.887679 -9.732790 32.118463 70.039328 -8.253758 4.294125 -11.579344 5.467167 -26.976090 -0.000052 -0.000010 0.000040 0.000000 0.000000 0.000000 26.578317 -23.089489 8.947977 -65.192967 -0.398873 -32.600264 72.612554 7.770593 -6.965529 -25.760369 -9.312714 24.842837 -7.690364 0.000060 -0.000000 0.000000 0.000000 0.000000 26.578317 -23.089489 8.947977 14.960810 2.122377 -0.887486 8.932691 1.291001 -0.662407 0.000000 0.000000 0.000000 0.000000 0.000000 0.000000 8.908011 1.411637 -0.757965 -7.575333 3.601990 -7.236713 -43.266670 10.835727 8.058441 0.000000 0.000000 0.000000 8.908011 1.411637 -0.757965 3.730450 -6.286358 8.218674 0.000000 0.000000 0.000000 -48.220220 5.755352 -65.566565 -179.999855 -88.580587 -179.999745 0.000000 0.000000 0.000000 8.908011 1.411637 -0.757965 3.981636 12.107280 3.979428 0.000000 0.000000 0.000000 -38.415829 11.620502 49.978772 179.999896 83.383578 -179.999950 0.000000 0.000000 0.000000 
-0.750783 25.854795 3.331985 0.000000 0.000000 0.000000 26.923137 -23.281123 9.146547 -76.843631 -9.740520 32.296915 70.069067 -8.291232 4.375616 -11.855832 5.586221 -27.216152 -0.000077 -0.000003 0.000076 0.000000 0.000000 0.000000 26.923137 -23.281123 9.146547 -65.526998 -0.328946 -32.277780 72.578608 7.714198 -7.206210 -25.697310 -9.301775 24.893881 -7.700027 0.000044 -0.000003 0.000000 0.000000 0.000000 26.923137 -23.281123 9.146547 14.987860 1.837289 -0.862315 8.922834 1.103809 -0.624601 0.000000 0.000000 0.000000 0.000000 0.000000 0.000000 8.900821 1.229002 -0.711225 -7.629434 3.839549 -7.045021 -43.504425 11.961174 8.054574 0.000000 0.000000 0.000000 8.900821 1.229002 -0.711225 3.590617 -6.098781 6.593867 0.000000 0.000000 0.000000 -46.754735 5.551528 -65.181253 179.999909 -86.628259 179.999923 0.000000 0.000000 0.000000 8.900821 1.229002 -0.711225 3.972967 11.944947 3.645301 0.000000 0.000000 0.000000 -37.723890 11.625854 51.744219 -179.999950 80.145057 179.999909 0.000000 0.000000 0.000000 
-0.802610 25.818176 3.334429 0.000000 0.000000 0.000000 27.252566 -23.493018 9.382898 -76.826562 -9.808702 32.532744 70.183117 -8.353197 4.489687 -12.120429 5.724493 -27.531219 -0.000030 0.000001 0.000040 0.000000 0.000000 0.000000 27.252566 -23.493018 9.382898 -65.995228 -0.078957 -32.015808 72.780993 7.802015 -7.426341 -25.583553 -9.346537 25.158904 -7.670650 0.000063 0.000013 0.000000 0.000000 0.000000 27.252566 -23.493018 9.382898 15.069988 1.643004 -0.777949 8.939658 0.957388 -0.571685 0.000000 0.000000 0.000000 0.000000 0.000000 0.000000 8.920496 1.082578 -0.650623 -7.736409 4.058796 -6.950463 -43.731676 13.107990 7.767552 0.000000 0.000000 0.000000 8.920496 1.082578 -0.650623 3.463479 -5.915798 5.093543 0.000000 0.000000 0.000000 -45.480365 5.589821 -64.700347 -179.999978 -85.077253 -179.999978 0.000000 0.000000 0.000000 8.920496 1.082578 -0.650623 3.929815 11.747154 3.404059 0.000000 0.000000 0.000000 -36.530297 12.188377 52.703416 179.999937 76.844484 -179.999978 0.000000 0.000000 0.000000 
-0.868687 25.754131 3.315590 0.000000 0.000000 0.000000 27.465283 -23.694094 9.592850 -76.763198 -9.933469 32.799764 70.332493 -8.451133 4.597513 -12.336364 5.861395 -27.879087 -0.000069 0.000003 0.000079 0.000000 0.000000 0.000000 27.465283 -23.694094 9.592850 -66.499678 0.206526 -31.835901 73.245296 7.972345 -7.599850 -25.596346 -9.402582 25.354458 -7.621298 0.000057 0.000005 0.000000 0.000000 0.000000 27.465283 -23.694094 9.592850 15.191809 1.594074 -0.689706 8.978267 0.903585 -0.521983 0.000000 0.000000 0.000000 0.000000 0.000000 0.000000 8.960374 1.028916 -0.598583 -7.707970 4.185154 -6.954143 -43.981115 14.006324 7.264423 0.000000 0.000000 0.000000 8.960374 1.028916 -0.598583 3.362094 -5.742504 4.109849 0.000000 0.000000 0.000000 -44.390817 5.829255 -64.522359 -179.999937 -84.141305 -179.999964 0.000000 0.000000 0.000000 8.960374 1.028916 -0.598583 3.873875 11.618037 3.523676 0.000000 0.000000 0.000000 -35.470081 12.987583 52.920780 179.999896 74.302520 -179.999937 0.000000 0.000000 0.000000 
-0.939531 25.678326 3.280191 0.000000 0.000000 0.000000 27.546686 -23.828315 9.746682 -76.635201 -10.142964 33.019481 70.442056 -8.538227 4.645466 -12.454045 5.974582 -28.230584 -0.000054 0.000007 0.000056 0.000000 0.000000 0.000000 27.546686 -23.828315 9.746682 -66.953346 0.441898 -31.775355 73.909586 8.163544 -7.688945 -25.799779 -9.455879 25.364903 -7.597458 0.000049 0.000019 0.000000 0.000000 0.000000 27.546686 -23.828315 9.746682 15.282444 1.660723 -0.625618 9.005721 0.933334 -0.482028 0.000000 0.000000 0.000000 0.000000 0.000000 0.000000 8.987300 1.062139 -0.561689 -7.437292 4.212022 -7.043134 -44.291502 14.563504 6.724213 0.000000 0.000000 0.000000 8.987300 1.062139 -0.561689 3.289493 -5.602862 3.536594 0.000000 0.000000 0.000000 -43.486592 5.962863 -64.607497 179.999909 -83.868794 179.999937 0.000000 0.000000 0.000000 8.987300 1.062139 -0.561689 3.833305 11.648813 4.175596 0.000000 0.000000 0.000000 -34.549122 13.693179 52.442291 179.999964 72.385464 -179.999991 0.000000 0.000000 0.000000 
-1.009680 25.602367 3.234182 0.000000 0.000000 0.000000 27.548911 -23.847805 9.863593 -76.493481 -10.413303 33.109762 70.445191 -8.572318 4.646220 -12.433567 6.049367 -28.585674 0.000012 0.000007 0.000006 0.000000 0.000000 0.000000 27.548911 -23.847805 9.863593 -67.310947 0.637174 -31.836833 74.679021 8.307644 -7.696296 -26.171999 -9.524490 25.261410 -7.598050 0.000057 0.000012 0.000000 0.000000 0.000000 27.548911 -23.847805 9.863593 15.303070 1.753301 -0.554849 9.000463 0.980464 -0.443987 0.000000 0.000000 0.000000 0.000000 0.000000 0.000000 8.981374 1.111705 -0.527191 -6.999991 4.206283 -7.199140 -44.648352 14.924681 6.259282 0.000000 0.000000 0.000000 8.981374 1.111705 -0.527191 3.243144 -5.530086 2.922674 0.000000 0.000000 0.000000 -42.803009 5.840635 -64.602463 179.999909 -84.008185 179.999923 0.000000 0.000000 0.000000 8.981374 1.111705 -0.527191 3.814227 11.798100 5.084290 0.000000 0.000000 0.000000 -33.745103 14.172819 51.652325 179.999991 71.037669 179.999991 0.000000 0.000000 0.000000 
-1.077799 25.530682 3.178312 0.000000 0.000000 0.000000 27.495270 -23.761829 9.962015 -76.381350 -10.668324 33.070663 70.331920 -8.582052 4.665354 -12.276129 6.086189 -28.963977 -0.000017 0.000004 0.000029 0.000000 0.000000 0.000000 27.495270 -23.761829 9.962015 -67.577093 0.817017 -31.976060 75.488268 8.392864 -7.685182 -26.636358 -9.624129 25.167785 -7.598048 0.000052 -0.000001 0.000000 0.000000 0.000000 27.495270 -23.761829 9.962015 15.303915 1.785895 -0.423494 8.988492 0.973148 -0.394331 0.000000 0.000000 0.000000 0.000000 0.000000 0.000000 8.970585 1.099082 -0.475776 -6.554845 4.248306 -7.418277 -45.033899 15.301475 5.881843 0.000000 0.000000 0.000000 8.970585 1.099082 -0.475776 3.206327 -5.505234 1.968436 0.000000 0.000000 0.000000 -42.376860 5.632425 -64.252109 179.999868 -84.166154 179.999868 0.000000 0.000000 0.000000 8.970585 1.099082 -0.475776 3.805964 11.940865 5.693494 0.000000 0.000000 0.000000 -33.117818 14.367665 51.201321 179.999937 70.177468 -179.999978 0.000000 0.000000 0.000000 
-1.142970 25.463322 3.110952 0.000000 0.000000 0.000000 27.363773 -23.616484 10.023981 -76.308875 -10.855443 32.978670 70.143761 -8.647697 4.738703 -12.014196 6.089845 -29.359397 -0.000004 0.000001 0.000003 0.000000 0.000000 0.000000 27.363773 -23.616484 10.023981 -67.756617 0.966445 -32.125843 76.307816 8.431221 -7.712900 -27.147576 -9.748795 25.111189 -7.598049 0.000053 0.000011 0.000000 0.000000 0.000000 27.363773 -23.616484 10.023981 15.365750 1.735056 -0.229103 9.016276 0.895628 -0.330581 0.000000 0.000000 0.000000 0.000000 0.000000 0.000000 9.001479 1.008761 -0.404268 -6.233952 4.351196 -7.680537 -45.416322 15.704697 5.603012 0.000000 0.000000 0.000000 9.001479 1.008761 -0.404268 3.156973 -5.459932 0.804991 0.000000 0.000000 0.000000 -42.192882 5.533422 -63.653702 179.999991 -84.078741 179.999978 0.000000 0.000000 0.000000 9.001479 1.008761 -0.404268 3.804530 12.008189 5.741573 0.000000 0.000000 0.000000 -32.698721 14.345081 51.366964 179.999978 69.651209 -179.999991 0.000000 0.000000 0.000000 
-1.202170 25.398891 3.036791 0.000000 0.000000 0.000000 27.153508 -23.450174 10.021180 -76.279450 -10.998764 32.912513 69.944784 -8.821669 4.837881 -11.696967 6.069186 -29.747840 0.000004 -0.000001 0.000004 0.000000 0.000000 0.000000 27.153508 -23.450174 10.021180 -67.826333 1.083564 -32.239828 77.107126 8.411501 -7.750292 -27.698338 -9.881498 25.044690 -7.598036 0.000055 0.000015 0.000000 0.000000 0.000000 27.153508 -23.450174 10.021180 15.493476 1.640575 -0.031700 9.087088 0.790954 -0.265457 0.000000 0.000000 0.000000 0.000000 0.000000 0.000000 9.075385 0.891430 -0.330060 -6.059279 4.458837 -7.919277 -45.719497 15.975886 5.452548 0.000000 0.000000 0.000000 9.075385 0.891430 -0.330060 3.100783 -5.379159 -0.197399 0.000000 0.000000 0.000000 -42.151416 5.555389 -63.097370 179.999991 -83.772407 -179.999978 0.000000 0.000000 0.000000 9.075385 0.891430 -0.330060 3.811622 12.038405 5.576276 0.000000 0.000000 0.000000 -32.407762 14.282298 51.750673 179.999950 69.327923 -179.999964 0.000000 0.000000 0.000000 
